<?xml version="1.0" encoding="UTF-8"?>
<svg xmlns="http://www.w3.org/2000/svg" viewBox="0 0 160 36" width="160" height="36" role="img" aria-label="Tonutils">
  <title>Tonutils</title>
  <svg x="0" y="0" width="36" height="36" viewBox="0 0 236 237" fill="none">
    <defs>
      <linearGradient id="g" x1="118" y1="0" x2="118" y2="237" gradientUnits="userSpaceOnUse">
        <stop stop-color="#4DB8FF"/>
        <stop offset="1" stop-color="#0098EA"/>
      </linearGradient>
    </defs>
    <path d="M118.204 0C183.486 0 236.408 52.922 236.408 118.204C236.408 183.487 183.486 236.408 118.204 236.408C52.922 236.408 0 183.486 0 118.204C0 52.922 52.922 0 118.204 0ZM74.101 62.196C57.68 62.196 47.268 79.912 55.531 94.235L109.964 188.582C113.619 194.922 122.781 194.922 126.436 188.582L180.88 94.235C189.132 79.934 178.72 62.196 162.31 62.196H74.101ZM162.288 78.841C166.031 78.841 168.234 82.812 166.45 85.907L137.856 137.091L126.506 159.046V78.841H162.288ZM109.872 78.852V159.024L98.538 137.087L69.929 85.921C68.213 82.7 70.405 78.852 74.09 78.852H109.872Z" fill="url(#g)"/>
  </svg>
  <g fill="#fff">
    <path d="M46.03 11.27L46.03 7.81L62.67 7.81L62.67 11.27L56.45 11.27L56.45 28.19L52.26 28.19L52.26 11.27Z"/>
    <path d="M72.29 28.49Q69.99 28.49 68.31 27.5Q66.62 26.51 65.72 24.74Q64.81 22.97 64.81 20.61Q64.81 18.25 65.72 16.47Q66.62 14.69 68.31 13.7Q69.99 12.71 72.29 12.71Q74.59 12.71 76.27 13.7Q77.95 14.69 78.86 16.47Q79.77 18.25 79.77 20.61Q79.77 22.97 78.86 24.74Q77.95 26.51 76.27 27.5Q74.59 28.49 72.29 28.49ZM72.29 25.26Q73.93 25.26 74.76 23.94Q75.6 22.61 75.6 20.6Q75.6 18.57 74.76 17.25Q73.93 15.93 72.29 15.93Q70.65 15.93 69.82 17.25Q68.99 18.57 68.99 20.6Q68.99 22.61 69.82 23.94Q70.65 25.26 72.29 25.26Z"/>
    <path d="M86.73 19.34L86.73 28.19L82.63 28.19L82.63 12.9L86.5 12.9L86.55 16.06Q87.2 14.46 88.37 13.58Q89.55 12.71 91.31 12.71Q93.69 12.71 95.13 14.24Q96.57 15.77 96.57 18.47L96.57 28.19L92.46 28.19L92.46 19.18Q92.46 17.75 91.73 16.95Q91.0 16.14 89.7 16.14Q88.39 16.14 87.56 16.98Q86.73 17.82 86.73 19.34Z"/>
    <path d="M105.33 28.38Q102.95 28.38 101.51 26.85Q100.07 25.32 100.07 22.62L100.07 12.9L104.17 12.9L104.17 21.91Q104.17 23.33 104.91 24.14Q105.65 24.95 106.93 24.95Q108.25 24.95 109.07 24.11Q109.9 23.27 109.9 21.75L109.9 12.9L114.02 12.9L114.02 28.19L110.13 28.19L110.08 25.02Q109.44 26.64 108.25 27.51Q107.07 28.38 105.33 28.38Z"/>
    <path d="M125.1 12.9L125.1 16.03L122.24 16.03L122.24 23.72Q122.24 25.14 123.63 25.14Q123.87 25.14 124.28 25.08Q124.7 25.02 124.93 24.96L125.52 28.04Q124.84 28.24 124.16 28.33Q123.48 28.41 122.87 28.41Q120.57 28.41 119.35 27.29Q118.14 26.18 118.14 24.07L118.14 16.03L116.03 16.03L116.03 12.9L118.14 12.9L118.14 9.26L122.24 9.26L122.24 12.9Z"/>
    <path d="M127.76 28.19L127.76 12.9L131.87 12.9L131.87 28.19ZM129.82 10.9Q128.89 10.9 128.23 10.29Q127.57 9.67 127.57 8.79Q127.57 7.92 128.23 7.3Q128.89 6.69 129.82 6.69Q130.75 6.69 131.41 7.3Q132.07 7.92 132.07 8.79Q132.07 9.67 131.41 10.29Q130.75 10.9 129.82 10.9Z"/>
    <path d="M139.46 7.81L139.46 28.19L135.36 28.19L135.36 7.81Z"/>
    <path d="M149.02 28.49Q146.26 28.49 144.46 27.31Q142.66 26.14 142.26 24.0L146.08 23.35Q146.67 25.48 149.14 25.48Q150.32 25.48 151.0 25.04Q151.67 24.59 151.67 23.91Q151.67 22.75 149.7 22.34L147.06 21.79Q142.66 20.89 142.66 17.45Q142.66 15.25 144.42 13.98Q146.19 12.71 149.09 12.71Q151.81 12.71 153.42 13.81Q155.04 14.92 155.46 16.78L151.82 17.43Q151.58 16.65 150.92 16.15Q150.26 15.65 149.14 15.65Q148.13 15.65 147.45 16.08Q146.76 16.51 146.76 17.19Q146.76 17.77 147.21 18.17Q147.65 18.57 148.73 18.79L151.48 19.34Q155.86 20.23 155.86 23.47Q155.86 24.98 154.98 26.1Q154.11 27.23 152.56 27.86Q151.02 28.49 149.02 28.49Z"/>
  </g>
</svg>
